<mxfile host="Electron" agent="Mozilla/5.0 (Windows NT 10.0; Win64; x64) AppleWebKit/537.36 (KHTML, like Gecko) draw.io/24.7.8 Chrome/128.0.6613.36 Electron/32.0.1 Safari/537.36" version="24.7.8">
  <diagram name="PÃ¡gina-1" id="G2aOBRKmYlYPZ_sjf6J7">
    <mxGraphModel dx="1290" dy="621" grid="1" gridSize="10" guides="1" tooltips="1" connect="1" arrows="1" fold="1" page="1" pageScale="1" pageWidth="1169" pageHeight="827" math="0" shadow="0">
      <root>
        <mxCell id="0" />
        <mxCell id="1" parent="0" />
        <mxCell id="goxQH9hMcrP3ggXVRuTO-57" value="" style="rounded=0;whiteSpace=wrap;html=1;fillColor=#f5f5f5;fontColor=#333333;strokeColor=#666666;" parent="1" vertex="1">
          <mxGeometry x="498" y="102" width="450" height="624" as="geometry" />
        </mxCell>
        <mxCell id="goxQH9hMcrP3ggXVRuTO-26" value="" style="rounded=0;whiteSpace=wrap;html=1;fillColor=#f5f5f5;fontColor=#333333;strokeColor=#666666;" parent="1" vertex="1">
          <mxGeometry x="140" y="102" width="320" height="624" as="geometry" />
        </mxCell>
        <mxCell id="goxQH9hMcrP3ggXVRuTO-1" value="" style="ellipse;html=1;shape=startState;fillColor=#000000;strokeColor=#ff0000;" parent="1" vertex="1">
          <mxGeometry x="270" y="136" width="30" height="30" as="geometry" />
        </mxCell>
        <mxCell id="goxQH9hMcrP3ggXVRuTO-3" value="" style="ellipse;html=1;shape=endState;fillColor=#000000;strokeColor=#ff0000;" parent="1" vertex="1">
          <mxGeometry x="270" y="676" width="30" height="30" as="geometry" />
        </mxCell>
        <mxCell id="goxQH9hMcrP3ggXVRuTO-17" style="edgeStyle=orthogonalEdgeStyle;rounded=0;orthogonalLoop=1;jettySize=auto;html=1;exitX=0.5;exitY=1;exitDx=0;exitDy=0;entryX=0.5;entryY=0;entryDx=0;entryDy=0;" parent="1" source="goxQH9hMcrP3ggXVRuTO-4" target="goxQH9hMcrP3ggXVRuTO-14" edge="1">
          <mxGeometry relative="1" as="geometry" />
        </mxCell>
        <mxCell id="goxQH9hMcrP3ggXVRuTO-4" value="Creada" style="rounded=1;whiteSpace=wrap;html=1;arcSize=40;fontColor=#000000;fillColor=#ffffc0;strokeColor=#ff0000;" parent="1" vertex="1">
          <mxGeometry x="225" y="236" width="120" height="40" as="geometry" />
        </mxCell>
        <mxCell id="goxQH9hMcrP3ggXVRuTO-6" value="DIAGRAMA DE ESTADOS DE EXAMEN" style="text;html=1;align=center;verticalAlign=middle;whiteSpace=wrap;rounded=0;" parent="1" vertex="1">
          <mxGeometry x="150" y="106" width="270" height="30" as="geometry" />
        </mxCell>
        <mxCell id="goxQH9hMcrP3ggXVRuTO-23" style="edgeStyle=orthogonalEdgeStyle;rounded=0;orthogonalLoop=1;jettySize=auto;html=1;exitX=0.5;exitY=1;exitDx=0;exitDy=0;entryX=0.5;entryY=0;entryDx=0;entryDy=0;" parent="1" source="goxQH9hMcrP3ggXVRuTO-7" target="goxQH9hMcrP3ggXVRuTO-20" edge="1">
          <mxGeometry relative="1" as="geometry" />
        </mxCell>
        <mxCell id="goxQH9hMcrP3ggXVRuTO-7" value="Iniciado" style="rounded=1;whiteSpace=wrap;html=1;arcSize=40;fontColor=#000000;fillColor=#ffffc0;strokeColor=#ff0000;" parent="1" vertex="1">
          <mxGeometry x="225" y="416" width="120" height="40" as="geometry" />
        </mxCell>
        <mxCell id="goxQH9hMcrP3ggXVRuTO-24" style="edgeStyle=orthogonalEdgeStyle;rounded=0;orthogonalLoop=1;jettySize=auto;html=1;exitX=0.5;exitY=1;exitDx=0;exitDy=0;" parent="1" source="goxQH9hMcrP3ggXVRuTO-9" target="goxQH9hMcrP3ggXVRuTO-3" edge="1">
          <mxGeometry relative="1" as="geometry" />
        </mxCell>
        <mxCell id="goxQH9hMcrP3ggXVRuTO-9" value="Finalizado" style="rounded=1;whiteSpace=wrap;html=1;arcSize=40;fontColor=#000000;fillColor=#ffffc0;strokeColor=#ff0000;" parent="1" vertex="1">
          <mxGeometry x="225" y="606" width="120" height="40" as="geometry" />
        </mxCell>
        <mxCell id="goxQH9hMcrP3ggXVRuTO-10" value="Administrador crea nuevo examen" style="text;align=center;fontStyle=1;verticalAlign=middle;spacingLeft=3;spacingRight=3;strokeColor=none;rotatable=0;points=[[0,0.5],[1,0.5]];portConstraint=eastwest;html=1;" parent="1" vertex="1">
          <mxGeometry x="233" y="186" width="80" height="26" as="geometry" />
        </mxCell>
        <mxCell id="goxQH9hMcrP3ggXVRuTO-12" value="" style="edgeStyle=orthogonalEdgeStyle;html=1;verticalAlign=bottom;endArrow=open;endSize=8;strokeColor=#ff0000;rounded=0;exitX=0.5;exitY=1;exitDx=0;exitDy=0;entryX=0.5;entryY=0;entryDx=0;entryDy=0;" parent="1" source="goxQH9hMcrP3ggXVRuTO-1" target="goxQH9hMcrP3ggXVRuTO-4" edge="1">
          <mxGeometry relative="1" as="geometry">
            <mxPoint x="295" y="346" as="targetPoint" />
            <mxPoint x="295" y="286" as="sourcePoint" />
          </mxGeometry>
        </mxCell>
        <mxCell id="goxQH9hMcrP3ggXVRuTO-18" style="edgeStyle=orthogonalEdgeStyle;rounded=0;orthogonalLoop=1;jettySize=auto;html=1;exitX=0.5;exitY=1;exitDx=0;exitDy=0;" parent="1" source="goxQH9hMcrP3ggXVRuTO-14" target="goxQH9hMcrP3ggXVRuTO-7" edge="1">
          <mxGeometry relative="1" as="geometry" />
        </mxCell>
        <mxCell id="goxQH9hMcrP3ggXVRuTO-14" value="Asignado" style="rounded=1;whiteSpace=wrap;html=1;arcSize=40;fontColor=#000000;fillColor=#ffffc0;strokeColor=#ff0000;" parent="1" vertex="1">
          <mxGeometry x="225" y="316" width="120" height="40" as="geometry" />
        </mxCell>
        <mxCell id="goxQH9hMcrP3ggXVRuTO-15" value="Administrador asigna examen" style="text;align=center;fontStyle=1;verticalAlign=middle;spacingLeft=3;spacingRight=3;strokeColor=none;rotatable=0;points=[[0,0.5],[1,0.5]];portConstraint=eastwest;html=1;" parent="1" vertex="1">
          <mxGeometry x="247" y="276" width="80" height="26" as="geometry" />
        </mxCell>
        <mxCell id="goxQH9hMcrP3ggXVRuTO-19" value="Evaluado inicia examen" style="text;align=center;fontStyle=1;verticalAlign=middle;spacingLeft=3;spacingRight=3;strokeColor=none;rotatable=0;points=[[0,0.5],[1,0.5]];portConstraint=eastwest;html=1;" parent="1" vertex="1">
          <mxGeometry x="245" y="366" width="80" height="26" as="geometry" />
        </mxCell>
        <mxCell id="goxQH9hMcrP3ggXVRuTO-20" value="Termino" style="rhombus;whiteSpace=wrap;html=1;fontColor=#000000;fillColor=#ffffc0;strokeColor=#ff0000;" parent="1" vertex="1">
          <mxGeometry x="225" y="486" width="120" height="70" as="geometry" />
        </mxCell>
        <mxCell id="goxQH9hMcrP3ggXVRuTO-21" value="NO" style="edgeStyle=orthogonalEdgeStyle;html=1;align=left;verticalAlign=bottom;endArrow=open;endSize=8;strokeColor=#ff0000;rounded=0;exitX=1;exitY=0.5;exitDx=0;exitDy=0;entryX=1;entryY=0.25;entryDx=0;entryDy=0;" parent="1" source="goxQH9hMcrP3ggXVRuTO-20" target="goxQH9hMcrP3ggXVRuTO-4" edge="1">
          <mxGeometry x="-1" relative="1" as="geometry">
            <mxPoint x="610" y="521" as="targetPoint" />
            <mxPoint x="365" y="541" as="sourcePoint" />
            <Array as="points">
              <mxPoint x="400" y="521" />
              <mxPoint x="400" y="246" />
            </Array>
          </mxGeometry>
        </mxCell>
        <mxCell id="goxQH9hMcrP3ggXVRuTO-22" value="SI" style="edgeStyle=orthogonalEdgeStyle;html=1;align=left;verticalAlign=top;endArrow=open;endSize=8;strokeColor=#ff0000;rounded=0;entryX=0.5;entryY=0;entryDx=0;entryDy=0;" parent="1" source="goxQH9hMcrP3ggXVRuTO-20" target="goxQH9hMcrP3ggXVRuTO-9" edge="1">
          <mxGeometry x="-1" relative="1" as="geometry">
            <mxPoint x="280" y="596" as="targetPoint" />
          </mxGeometry>
        </mxCell>
        <mxCell id="goxQH9hMcrP3ggXVRuTO-27" value="" style="ellipse;html=1;shape=startState;fillColor=#000000;strokeColor=#ff0000;" parent="1" vertex="1">
          <mxGeometry x="705" y="136" width="30" height="30" as="geometry" />
        </mxCell>
        <mxCell id="goxQH9hMcrP3ggXVRuTO-36" style="edgeStyle=orthogonalEdgeStyle;rounded=0;orthogonalLoop=1;jettySize=auto;html=1;exitX=0.5;exitY=1;exitDx=0;exitDy=0;entryX=0.5;entryY=0;entryDx=0;entryDy=0;" parent="1" source="goxQH9hMcrP3ggXVRuTO-28" target="goxQH9hMcrP3ggXVRuTO-35" edge="1">
          <mxGeometry relative="1" as="geometry" />
        </mxCell>
        <mxCell id="goxQH9hMcrP3ggXVRuTO-28" value="Creados" style="rounded=1;whiteSpace=wrap;html=1;arcSize=40;fontColor=#000000;fillColor=#ffffc0;strokeColor=#ff0000;" parent="1" vertex="1">
          <mxGeometry x="660" y="236" width="120" height="40" as="geometry" />
        </mxCell>
        <mxCell id="goxQH9hMcrP3ggXVRuTO-29" value="" style="edgeStyle=orthogonalEdgeStyle;html=1;verticalAlign=bottom;endArrow=open;endSize=8;strokeColor=#ff0000;rounded=0;entryX=0.5;entryY=0;entryDx=0;entryDy=0;" parent="1" target="goxQH9hMcrP3ggXVRuTO-28" edge="1">
          <mxGeometry relative="1" as="geometry">
            <mxPoint x="730" y="346" as="targetPoint" />
            <mxPoint x="720" y="166" as="sourcePoint" />
          </mxGeometry>
        </mxCell>
        <mxCell id="goxQH9hMcrP3ggXVRuTO-30" value="ADMINISTRACION DE EVALUADOS" style="text;html=1;align=center;verticalAlign=middle;whiteSpace=wrap;rounded=0;" parent="1" vertex="1">
          <mxGeometry x="585" y="106" width="270" height="30" as="geometry" />
        </mxCell>
        <mxCell id="goxQH9hMcrP3ggXVRuTO-31" value="Auxiliar consulta usuarios" style="text;align=center;fontStyle=1;verticalAlign=middle;spacingLeft=3;spacingRight=3;strokeColor=none;rotatable=0;points=[[0,0.5],[1,0.5]];portConstraint=eastwest;html=1;" parent="1" vertex="1">
          <mxGeometry x="690" y="186" width="80" height="26" as="geometry" />
        </mxCell>
        <mxCell id="goxQH9hMcrP3ggXVRuTO-38" style="edgeStyle=orthogonalEdgeStyle;rounded=0;orthogonalLoop=1;jettySize=auto;html=1;exitX=1;exitY=0.5;exitDx=0;exitDy=0;entryX=0.5;entryY=1;entryDx=0;entryDy=0;" parent="1" source="goxQH9hMcrP3ggXVRuTO-32" target="goxQH9hMcrP3ggXVRuTO-34" edge="1">
          <mxGeometry relative="1" as="geometry" />
        </mxCell>
        <mxCell id="goxQH9hMcrP3ggXVRuTO-55" style="edgeStyle=orthogonalEdgeStyle;rounded=0;orthogonalLoop=1;jettySize=auto;html=1;exitX=0.5;exitY=1;exitDx=0;exitDy=0;entryX=0.5;entryY=0;entryDx=0;entryDy=0;" parent="1" source="goxQH9hMcrP3ggXVRuTO-32" target="goxQH9hMcrP3ggXVRuTO-50" edge="1">
          <mxGeometry relative="1" as="geometry" />
        </mxCell>
        <mxCell id="goxQH9hMcrP3ggXVRuTO-32" value="Accion" style="rhombus;whiteSpace=wrap;html=1;fontColor=#000000;fillColor=#ffffc0;strokeColor=#ff0000;" parent="1" vertex="1">
          <mxGeometry x="660" y="516" width="120" height="70" as="geometry" />
        </mxCell>
        <mxCell id="goxQH9hMcrP3ggXVRuTO-39" style="edgeStyle=orthogonalEdgeStyle;rounded=0;orthogonalLoop=1;jettySize=auto;html=1;exitX=0.5;exitY=0;exitDx=0;exitDy=0;entryX=1;entryY=0.5;entryDx=0;entryDy=0;" parent="1" source="goxQH9hMcrP3ggXVRuTO-34" target="goxQH9hMcrP3ggXVRuTO-28" edge="1">
          <mxGeometry relative="1" as="geometry" />
        </mxCell>
        <mxCell id="goxQH9hMcrP3ggXVRuTO-34" value="Actualizando" style="rounded=1;whiteSpace=wrap;html=1;arcSize=40;fontColor=#000000;fillColor=#ffffc0;strokeColor=#ff0000;" parent="1" vertex="1">
          <mxGeometry x="810" y="392" width="120" height="40" as="geometry" />
        </mxCell>
        <mxCell id="goxQH9hMcrP3ggXVRuTO-41" style="edgeStyle=orthogonalEdgeStyle;rounded=0;orthogonalLoop=1;jettySize=auto;html=1;exitX=0.5;exitY=1;exitDx=0;exitDy=0;entryX=0.5;entryY=0;entryDx=0;entryDy=0;" parent="1" source="goxQH9hMcrP3ggXVRuTO-35" target="goxQH9hMcrP3ggXVRuTO-46" edge="1">
          <mxGeometry relative="1" as="geometry">
            <mxPoint x="720" y="376" as="targetPoint" />
          </mxGeometry>
        </mxCell>
        <mxCell id="goxQH9hMcrP3ggXVRuTO-35" value="Activo" style="rounded=1;whiteSpace=wrap;html=1;arcSize=40;fontColor=#000000;fillColor=#ffffc0;strokeColor=#ff0000;" parent="1" vertex="1">
          <mxGeometry x="660" y="316" width="120" height="40" as="geometry" />
        </mxCell>
        <mxCell id="goxQH9hMcrP3ggXVRuTO-37" value="Auxiliar administra usuarios" style="text;align=center;fontStyle=1;verticalAlign=middle;spacingLeft=3;spacingRight=3;strokeColor=none;rotatable=0;points=[[0,0.5],[1,0.5]];portConstraint=eastwest;html=1;" parent="1" vertex="1">
          <mxGeometry x="683" y="286" width="80" height="16" as="geometry" />
        </mxCell>
        <mxCell id="goxQH9hMcrP3ggXVRuTO-40" value="Update" style="text;html=1;align=center;verticalAlign=middle;whiteSpace=wrap;rounded=0;" parent="1" vertex="1">
          <mxGeometry x="810" y="486" width="60" height="30" as="geometry" />
        </mxCell>
        <mxCell id="goxQH9hMcrP3ggXVRuTO-43" style="edgeStyle=orthogonalEdgeStyle;rounded=0;orthogonalLoop=1;jettySize=auto;html=1;entryX=0;entryY=0.5;entryDx=0;entryDy=0;exitX=0;exitY=0.5;exitDx=0;exitDy=0;" parent="1" source="goxQH9hMcrP3ggXVRuTO-46" target="goxQH9hMcrP3ggXVRuTO-28" edge="1">
          <mxGeometry relative="1" as="geometry">
            <mxPoint x="570" y="356" as="targetPoint" />
            <mxPoint x="530" y="416" as="sourcePoint" />
            <Array as="points">
              <mxPoint x="580" y="441" />
              <mxPoint x="580" y="256" />
            </Array>
          </mxGeometry>
        </mxCell>
        <mxCell id="goxQH9hMcrP3ggXVRuTO-45" value="Select" style="text;html=1;align=center;verticalAlign=middle;whiteSpace=wrap;rounded=0;" parent="1" vertex="1">
          <mxGeometry x="710" y="366" width="60" height="30" as="geometry" />
        </mxCell>
        <mxCell id="goxQH9hMcrP3ggXVRuTO-53" style="edgeStyle=orthogonalEdgeStyle;rounded=0;orthogonalLoop=1;jettySize=auto;html=1;exitX=0.5;exitY=1;exitDx=0;exitDy=0;entryX=0.5;entryY=0;entryDx=0;entryDy=0;" parent="1" source="goxQH9hMcrP3ggXVRuTO-46" target="goxQH9hMcrP3ggXVRuTO-32" edge="1">
          <mxGeometry relative="1" as="geometry" />
        </mxCell>
        <mxCell id="goxQH9hMcrP3ggXVRuTO-46" value="Existe" style="rhombus;whiteSpace=wrap;html=1;fontColor=#000000;fillColor=#ffffc0;strokeColor=#ff0000;" parent="1" vertex="1">
          <mxGeometry x="660" y="406" width="120" height="70" as="geometry" />
        </mxCell>
        <mxCell id="goxQH9hMcrP3ggXVRuTO-48" value="No" style="text;html=1;align=center;verticalAlign=middle;whiteSpace=wrap;rounded=0;" parent="1" vertex="1">
          <mxGeometry x="610" y="416" width="60" height="30" as="geometry" />
        </mxCell>
        <mxCell id="goxQH9hMcrP3ggXVRuTO-50" value="Eliminado" style="rounded=1;whiteSpace=wrap;html=1;arcSize=40;fontColor=#000000;fillColor=#ffffc0;strokeColor=#ff0000;" parent="1" vertex="1">
          <mxGeometry x="660" y="621" width="120" height="40" as="geometry" />
        </mxCell>
        <mxCell id="goxQH9hMcrP3ggXVRuTO-54" value="SI" style="text;html=1;align=center;verticalAlign=middle;whiteSpace=wrap;rounded=0;" parent="1" vertex="1">
          <mxGeometry x="705" y="476" width="60" height="30" as="geometry" />
        </mxCell>
        <mxCell id="goxQH9hMcrP3ggXVRuTO-56" value="Delete" style="text;html=1;align=center;verticalAlign=middle;whiteSpace=wrap;rounded=0;" parent="1" vertex="1">
          <mxGeometry x="735" y="582" width="60" height="30" as="geometry" />
        </mxCell>
        <mxCell id="ebWBxbD-ErqMGOvtvKGq-1" value="" style="ellipse;html=1;shape=endState;fillColor=#000000;strokeColor=#ff0000;" parent="1" vertex="1">
          <mxGeometry x="705" y="686" width="30" height="30" as="geometry" />
        </mxCell>
        <mxCell id="ebWBxbD-ErqMGOvtvKGq-2" style="edgeStyle=orthogonalEdgeStyle;rounded=0;orthogonalLoop=1;jettySize=auto;html=1;exitX=0.5;exitY=1;exitDx=0;exitDy=0;entryX=0.456;entryY=0.206;entryDx=0;entryDy=0;entryPerimeter=0;" parent="1" source="goxQH9hMcrP3ggXVRuTO-50" target="ebWBxbD-ErqMGOvtvKGq-1" edge="1">
          <mxGeometry relative="1" as="geometry" />
        </mxCell>
      </root>
    </mxGraphModel>
  </diagram>
</mxfile>
